<svg width="17" height="16" viewBox="0 0 17 16" fill="none" xmlns="http://www.w3.org/2000/svg">
<path fill-rule="evenodd" clip-rule="evenodd" d="M11.2668 4.44444L11.0038 5.32953L9.83974 9.24733L9.26866 11.1693L7.83333 16H9.60751L10.335 13.3768H13.9217L14.662 16H16.5L13.0665 4.44444H11.3278H11.2668ZM11.1186 10.5797L10.8839 11.4176H11.6036H13.3856L12.1348 6.95147L11.1186 10.5797ZM10.0272 3.78965C10.0539 3.69975 10.0857 3.61393 10.1221 3.53272H6.91909V0H5.426V3.53272H1.0408V5.32953H4.81466C3.85062 7.7202 2.25173 10.0195 0.5 11.2377C0.829184 11.6184 1.3112 12.3188 1.54633 12.7908C3.05118 11.5727 4.40318 9.63883 5.426 7.43088V14.2223H6.91909V7.35475C7.31951 8.20341 7.76748 9.01559 8.2521 9.76389L8.81996 7.85273C8.30191 7.05403 7.84631 6.19599 7.4834 5.32953H9.56968L10.0272 3.78965Z" fill="white"/>
</svg>
